master.ufo
<glyph name="vertlightrightheavybxd" format="1">
	<unicode hex="251D"/>
	<advance width="600"/>
	<outline>
		<contour>
			<point x="680" y="140" type="line"/>
			<point x="680" y="460" type="line"/>
			<point x="380" y="460" type="line"/>
			<point x="380" y="1000" type="line"/>
			<point x="220" y="1000" type="line"/>
			<point x="220" y="-400" type="line"/>
			<point x="380" y="-400" type="line"/>
			<point x="380" y="140" type="line"/>
		</contour>
	</outline>
</glyph>
<glyph name="Aringacute" format="1">
	<advance width="600"/>
	<outline>
		<contour>
			<point x="264" y="846" type="line"/>
			<point x="444" y="928" type="line"/>
			<point x="376" y="1022" type="line"/>
			<point x="212" y="870" type="line"/>
		</contour>
		<component base="Aring"/>
	</outline>
</glyph>
<glyph name="Dje" format="1">
	<advance width="600"/>
	<outline>
		<contour>
			<point x="416" y="-12" type="curve" smooth="yes"/>
			<point x="507" y="-12"/>
			<point x="568" y="36"/>
			<point x="568" y="192" type="curve" smooth="yes"/>
			<point x="568" y="350"/>
			<point x="476" y="410"/>
			<point x="382" y="410" type="curve" smooth="yes"/>
			<point x="364" y="410"/>
			<point x="344" y="407"/>
			<point x="324" y="404" type="curve"/>
			<point x="324" y="506" type="line"/>
			<point x="468" y="506" type="line"/>
			<point x="468" y="650" type="line"/>
			<point x="28" y="650" type="line"/>
			<point x="28" y="506" type="line"/>
			<point x="152" y="506" type="line"/>
			<point x="152" y="0" type="line"/>
			<point x="324" y="0" type="line"/>
			<point x="324" y="268" type="line"/>
			<point x="334" y="272"/>
			<point x="344" y="274"/>
			<point x="354" y="274" type="curve" smooth="yes"/>
			<point x="386" y="274"/>
			<point x="408" y="246"/>
			<point x="408" y="190" type="curve" smooth="yes"/>
			<point x="408" y="130"/>
			<point x="398" y="124"/>
			<point x="390" y="124" type="curve" smooth="yes"/>
			<point x="383" y="124"/>
			<point x="380" y="125"/>
			<point x="372" y="128" type="curve"/>
			<point x="346" y="-2" type="line"/>
			<point x="366" y="-10"/>
			<point x="388" y="-12"/>
		</contour>
	</outline>
</glyph>
<glyph name="Q" format="1">
	<advance width="600"/>
	<outline>
		<contour>
			<point x="300" y="-12" type="curve" smooth="yes"/>
			<point x="458" y="-12"/>
			<point x="566" y="102"/>
			<point x="566" y="328" type="curve" smooth="yes"/>
			<point x="566" y="548"/>
			<point x="458" y="662"/>
			<point x="300" y="662" type="curve" smooth="yes"/>
			<point x="142" y="662"/>
			<point x="34" y="548"/>
			<point x="34" y="328" type="curve" smooth="yes"/>
			<point x="34" y="102"/>
			<point x="142" y="-12"/>
		</contour>
		<contour>
			<point x="300" y="128" type="curve" smooth="yes"/>
			<point x="244" y="128"/>
			<point x="210" y="186"/>
			<point x="210" y="328" type="curve" smooth="yes"/>
			<point x="210" y="452"/>
			<point x="244" y="514"/>
			<point x="300" y="514" type="curve" smooth="yes"/>
			<point x="356" y="514"/>
			<point x="390" y="452"/>
			<point x="390" y="328" type="curve" smooth="yes"/>
			<point x="390" y="186"/>
			<point x="356" y="128"/>
		</contour>
		<contour>
			<point x="490" y="-184" type="curve" smooth="yes"/>
			<point x="536" y="-184"/>
			<point x="572" y="-174"/>
			<point x="594" y="-160" type="curve"/>
			<point x="564" y="-34" type="line"/>
			<point x="550" y="-41"/>
			<point x="530" y="-48"/>
			<point x="510" y="-48" type="curve" smooth="yes"/>
			<point x="466" y="-48"/>
			<point x="410" y="-34"/>
			<point x="392" y="24" type="curve"/>
			<point x="218" y="6" type="line"/>
			<point x="260" y="-106"/>
			<point x="355" y="-184"/>
		</contour>
		<contour>
			<point name="aboveUC" x="306" y="670" type="move"/>
		</contour>
	</outline>
</glyph>
<glyph name="Soft" format="1">
	<advance width="600"/>
	<outline>
		<contour>
			<point x="64" y="0" type="line"/>
			<point x="304" y="0" type="line" smooth="yes"/>
			<point x="448" y="0"/>
			<point x="568" y="54"/>
			<point x="568" y="218" type="curve" smooth="yes"/>
			<point x="568" y="366"/>
			<point x="456" y="424"/>
			<point x="308" y="424" type="curve" smooth="yes"/>
			<point x="236" y="424" type="line"/>
			<point x="236" y="650" type="line"/>
			<point x="64" y="650" type="line"/>
		</contour>
		<contour>
			<point x="236" y="136" type="line"/>
			<point x="236" y="288" type="line"/>
			<point x="296" y="288" type="line" smooth="yes"/>
			<point x="366" y="288"/>
			<point x="400" y="264"/>
			<point x="400" y="216" type="curve" smooth="yes"/>
			<point x="400" y="158"/>
			<point x="360" y="136"/>
			<point x="296" y="136" type="curve" smooth="yes"/>
		</contour>
	</outline>
</glyph>
<glyph name="arrowboth" format="1">
	<advance width="600"/>
	<outline>
		<contour>
			<point x="612" y="254" type="line"/>
			<point x="432" y="482" type="line"/>
			<point x="342" y="414" type="line"/>
			<point x="420" y="320" type="line"/>
			<point x="180" y="320" type="line"/>
			<point x="258" y="414" type="line"/>
			<point x="168" y="482" type="line"/>
			<point x="-12" y="254" type="line"/>
			<point x="-12" y="250" type="line"/>
			<point x="168" y="22" type="line"/>
			<point x="258" y="90" type="line"/>
			<point x="180" y="184" type="line"/>
			<point x="420" y="184" type="line"/>
			<point x="342" y="90" type="line"/>
			<point x="432" y="22" type="line"/>
			<point x="612" y="250" type="line"/>
		</contour>
	</outline>
</glyph>
<glyph name="arrowdownright" format="1">
	<advance width="600"/>
	<outline>
		<contour>
			<point x="505" y="54" type="line"/>
			<point x="508" y="57" type="line"/>
			<point x="500" y="444" type="line"/>
			<point x="378" y="436" type="line"/>
			<point x="392" y="266" type="line"/>
			<point x="162" y="497" type="line"/>
			<point x="65" y="400" type="line"/>
			<point x="296" y="170" type="line"/>
			<point x="126" y="184" type="line"/>
			<point x="118" y="62" type="line"/>
		</contour>
	</outline>
</glyph>
<glyph name="b" format="1">
	<advance width="600"/>
	<outline>
		<contour>
			<point x="345" y="-12" type="curve" smooth="yes"/>
			<point x="454" y="-12"/>
			<point x="558" y="86"/>
			<point x="558" y="259" type="curve" smooth="yes"/>
			<point x="558" y="412"/>
			<point x="480" y="512"/>
			<point x="359" y="512" type="curve" smooth="yes"/>
			<point x="314" y="512"/>
			<point x="268" y="494"/>
			<point x="234" y="462" type="curve"/>
			<point x="230" y="462" type="line"/>
			<point x="236" y="534" type="line"/>
			<point x="236" y="696" type="line"/>
			<point x="64" y="696" type="line"/>
			<point x="64" y="0" type="line"/>
			<point x="198" y="0" type="line"/>
			<point x="212" y="54" type="line"/>
			<point x="216" y="54" type="line"/>
			<point x="255" y="10"/>
			<point x="300" y="-12"/>
		</contour>
		<contour>
			<point x="304" y="128" type="curve" smooth="yes"/>
			<point x="281" y="128"/>
			<point x="257" y="134"/>
			<point x="236" y="152" type="curve"/>
			<point x="236" y="336" type="line"/>
			<point x="260" y="362"/>
			<point x="281" y="372"/>
			<point x="308" y="372" type="curve" smooth="yes"/>
			<point x="357" y="372"/>
			<point x="382" y="338"/>
			<point x="382" y="256" type="curve" smooth="yes"/>
			<point x="382" y="160"/>
			<point x="346" y="128"/>
		</contour>
		<contour>
			<point name="aboveUC" x="150" y="730" type="move"/>
		</contour>
		<contour>
			<point name="belowLC" x="310" y="-20" type="move"/>
		</contour>
	</outline>
</glyph>
<glyph name="bracketrightwhite" format="1">
	<advance width="600"/>
	<outline>
		<contour>
			<point x="106" y="-152" type="line"/>
			<point x="466" y="-152" type="line"/>
			<point x="466" y="708" type="line"/>
			<point x="106" y="708" type="line"/>
			<point x="106" y="618" type="line"/>
			<point x="228" y="618" type="line"/>
			<point x="228" y="-62" type="line"/>
			<point x="106" y="-62" type="line"/>
		</contour>
		<contour>
			<point x="316" y="-62" type="line"/>
			<point x="316" y="618" type="line"/>
			<point x="368" y="618" type="line"/>
			<point x="368" y="-62" type="line"/>
		</contour>
	</outline>
</glyph>
<glyph name="candrabinducmb.cap" format="1">
	<advance width="600"/>
	<outline>
		<contour>
			<point x="300" y="694" type="curve" smooth="yes"/>
			<point x="412" y="694"/>
			<point x="478" y="738"/>
			<point x="490" y="834" type="curve"/>
			<point x="408" y="850" type="line"/>
			<point x="394" y="802"/>
			<point x="352" y="782"/>
			<point x="300" y="782" type="curve" smooth="yes"/>
			<point x="248" y="782"/>
			<point x="206" y="802"/>
			<point x="192" y="850" type="curve"/>
			<point x="110" y="834" type="line"/>
			<point x="124" y="738"/>
			<point x="188" y="694"/>
		</contour>
		<contour>
			<point x="300" y="816" type="curve" smooth="yes"/>
			<point x="348" y="816"/>
			<point x="384" y="848"/>
			<point x="384" y="896" type="curve" smooth="yes"/>
			<point x="384" y="944"/>
			<point x="348" y="978"/>
			<point x="300" y="978" type="curve" smooth="yes"/>
			<point x="252" y="978"/>
			<point x="216" y="944"/>
			<point x="216" y="896" type="curve" smooth="yes"/>
			<point x="216" y="848"/>
			<point x="252" y="816"/>
		</contour>
		<contour>
			<point name="_aboveUC" x="300" y="670" type="move"/>
		</contour>
	</outline>
</glyph>
<glyph name="ceilingright" format="1">
	<advance width="600"/>
	<outline>
		<contour>
			<point x="280" y="0" type="line"/>
			<point x="410" y="0" type="line"/>
			<point x="410" y="706" type="line"/>
			<point x="106" y="706" type="line"/>
			<point x="106" y="616" type="line"/>
			<point x="280" y="616" type="line"/>
		</contour>
	</outline>
</glyph>
<glyph name="clickbilabial" format="1">
	<advance width="600"/>
	<outline>
		<contour>
			<point x="300" y="-12" type="curve" smooth="yes"/>
			<point x="446" y="-12"/>
			<point x="559" y="110"/>
			<point x="559" y="350" type="curve" smooth="yes"/>
			<point x="559" y="595"/>
			<point x="446" y="708"/>
			<point x="300" y="708" type="curve" smooth="yes"/>
			<point x="154" y="708"/>
			<point x="42" y="596"/>
			<point x="42" y="350" type="curve" smooth="yes"/>
			<point x="42" y="110"/>
			<point x="154" y="-12"/>
		</contour>
		<contour>
			<point x="300" y="126" type="curve" smooth="yes"/>
			<point x="250" y="126"/>
			<point x="200" y="174"/>
			<point x="200" y="350" type="curve" smooth="yes"/>
			<point x="200" y="524"/>
			<point x="250" y="570"/>
			<point x="300" y="570" type="curve" smooth="yes"/>
			<point x="350" y="570"/>
			<point x="401" y="524"/>
			<point x="401" y="350" type="curve" smooth="yes"/>
			<point x="401" y="174"/>
			<point x="350" y="126"/>
		</contour>
		<contour>
			<point x="300" y="276" type="curve" smooth="yes"/>
			<point x="342" y="276"/>
			<point x="376" y="308"/>
			<point x="376" y="350" type="curve" smooth="yes"/>
			<point x="376" y="394"/>
			<point x="342" y="428"/>
			<point x="300" y="428" type="curve" smooth="yes"/>
			<point x="258" y="428"/>
			<point x="224" y="394"/>
			<point x="224" y="350" type="curve" smooth="yes"/>
			<point x="224" y="308"/>
			<point x="258" y="276"/>
		</contour>
	</outline>
</glyph>
<glyph name="dotaccentcmb" format="1">
	<advance width="600"/>
	<outline>
		<contour>
			<point x="300" y="568" type="curve" smooth="yes"/>
			<point x="364" y="568"/>
			<point x="410" y="608"/>
			<point x="410" y="668" type="curve" smooth="yes"/>
			<point x="410" y="728"/>
			<point x="364" y="770"/>
			<point x="300" y="770" type="curve" smooth="yes"/>
			<point x="236" y="770"/>
			<point x="190" y="728"/>
			<point x="190" y="668" type="curve" smooth="yes"/>
			<point x="190" y="608"/>
			<point x="236" y="568"/>
		</contour>
		<contour>
			<point name="_aboveLC" x="300" y="520" type="move"/>
		</contour>
		<contour>
			<point name="aboveLC" x="300" y="770" type="move"/>
		</contour>
	</outline>
</glyph>
<glyph name="dotlessj" format="1">
	<advance width="600"/>
	<outline>
		<contour>
			<point x="195" y="-188" type="curve" smooth="yes"/>
			<point x="384" y="-188"/>
			<point x="436" y="-76"/>
			<point x="436" y="46" type="curve" smooth="yes"/>
			<point x="436" y="500" type="line"/>
			<point x="74" y="500" type="line"/>
			<point x="74" y="366" type="line"/>
			<point x="264" y="366" type="line"/>
			<point x="264" y="40" type="line" smooth="yes"/>
			<point x="264" y="-28"/>
			<point x="244" y="-54"/>
			<point x="183" y="-54" type="curve" smooth="yes"/>
			<point x="157" y="-54"/>
			<point x="128" y="-50"/>
			<point x="86" y="-32" type="curve"/>
			<point x="37" y="-154" type="line"/>
			<point x="81" y="-174"/>
			<point x="130" y="-188"/>
		</contour>
		<contour>
			<point name="aboveLC" x="344" y="520" type="move"/>
		</contour>
		<contour>
			<point name="belowLC" x="250" y="-200" type="move"/>
		</contour>
	</outline>
</glyph>
<glyph name="filledrect" format="1">
	<advance width="600"/>
	<outline>
		<contour>
			<point x="0" y="172" type="line"/>
			<point x="600" y="172" type="line"/>
			<point x="600" y="338" type="line"/>
			<point x="0" y="338" type="line"/>
		</contour>
	</outline>
</glyph>
<glyph name="g.a" format="1">
	<advance width="600"/>
	<outline>
		<component base="gscript"/>
		<contour>
			<point name="aboveLC" x="310" y="520" type="move"/>
		</contour>
		<contour>
			<point name="belowLC" x="300" y="-200" type="move"/>
		</contour>
	</outline>
</glyph>
<glyph name="g.sups" format="1">
	<advance width="600"/>
	<outline>
		<contour>
			<point x="278" y="233" type="curve" smooth="yes"/>
			<point x="404" y="233"/>
			<point x="485" y="281"/>
			<point x="485" y="354" type="curve" smooth="yes"/>
			<point x="485" y="415"/>
			<point x="433" y="440"/>
			<point x="344" y="440" type="curve" smooth="yes"/>
			<point x="288" y="440" type="line" smooth="yes"/>
			<point x="251" y="440"/>
			<point x="237" y="445"/>
			<point x="237" y="459" type="curve" smooth="yes"/>
			<point x="237" y="468"/>
			<point x="239" y="471"/>
			<point x="247" y="477" type="curve"/>
			<point x="263" y="474"/>
			<point x="276" y="472"/>
			<point x="288" y="472" type="curve" smooth="yes"/>
			<point x="369" y="472"/>
			<point x="431" y="503"/>
			<point x="431" y="582" type="curve" smooth="yes"/>
			<point x="431" y="594"/>
			<point x="427" y="607"/>
			<point x="423" y="614" type="curve"/>
			<point x="481" y="614" type="line"/>
			<point x="481" y="699" type="line"/>
			<point x="346" y="699" type="line"/>
			<point x="329" y="704"/>
			<point x="308" y="707"/>
			<point x="288" y="707" type="curve" smooth="yes"/>
			<point x="210" y="707"/>
			<point x="139" y="669"/>
			<point x="139" y="586" type="curve" smooth="yes"/>
			<point x="139" y="548"/>
			<point x="159" y="517"/>
			<point x="185" y="501" type="curve"/>
			<point x="185" y="499" type="line"/>
			<point x="161" y="483"/>
			<point x="144" y="459"/>
			<point x="144" y="437" type="curve" smooth="yes"/>
			<point x="144" y="409"/>
			<point x="159" y="392"/>
			<point x="178" y="380" type="curve"/>
			<point x="178" y="377" type="line"/>
			<point x="144" y="361"/>
			<point x="127" y="341"/>
			<point x="127" y="314" type="curve" smooth="yes"/>
			<point x="127" y="255"/>
			<point x="196" y="233"/>
		</contour>
		<contour>
			<point x="288" y="542" type="curve" smooth="yes"/>
			<point x="267" y="542"/>
			<point x="250" y="555"/>
			<point x="250" y="586" type="curve" smooth="yes"/>
			<point x="250" y="615"/>
			<point x="267" y="629"/>
			<point x="288" y="629" type="curve" smooth="yes"/>
			<point x="309" y="629"/>
			<point x="327" y="615"/>
			<point x="327" y="586" type="curve" smooth="yes"/>
			<point x="327" y="555"/>
			<point x="309" y="542"/>
		</contour>
		<contour>
			<point x="297" y="305" type="curve" smooth="yes"/>
			<point x="254" y="305"/>
			<point x="223" y="313"/>
			<point x="223" y="334" type="curve" smooth="yes"/>
			<point x="223" y="342"/>
			<point x="228" y="348"/>
			<point x="238" y="355" type="curve"/>
			<point x="250" y="353"/>
			<point x="263" y="351"/>
			<point x="289" y="351" type="curve" smooth="yes"/>
			<point x="321" y="351" type="line" smooth="yes"/>
			<point x="353" y="351"/>
			<point x="372" y="349"/>
			<point x="372" y="333" type="curve" smooth="yes"/>
			<point x="372" y="316"/>
			<point x="340" y="305"/>
		</contour>
	</outline>
</glyph>
<glyph name="kappa" format="1">
	<advance width="600"/>
	<outline>
		<contour>
			<point x="75" y="0" type="line"/>
			<point x="237" y="0" type="line"/>
			<point x="237" y="31" type="line" smooth="yes"/>
			<point x="237" y="110"/>
			<point x="254" y="155"/>
			<point x="280" y="181" type="curve" smooth="yes"/>
			<point x="409" y="308"/>
			<point x="457" y="338"/>
			<point x="535" y="352" type="curve"/>
			<point x="522" y="512" type="line"/>
			<point x="401" y="500"/>
			<point x="319" y="412"/>
			<point x="247" y="304" type="curve"/>
			<point x="243" y="304" type="line"/>
			<point x="243" y="374" type="line" smooth="yes"/>
			<point x="243" y="422"/>
			<point x="241" y="466"/>
			<point x="233" y="500" type="curve"/>
			<point x="63" y="500" type="line"/>
			<point x="73" y="444"/>
			<point x="75" y="380"/>
			<point x="75" y="340" type="curve" smooth="yes"/>
		</contour>
		<contour>
			<point x="395" y="-12" type="curve"/>
			<point x="589" y="0" type="line"/>
			<point x="523" y="74"/>
			<point x="439" y="202"/>
			<point x="389" y="302" type="curve"/>
			<point x="280" y="190" type="line"/>
			<point x="325" y="96"/>
			<point x="361" y="34"/>
		</contour>
	</outline>
</glyph>
<glyph name="leftangleabovecmb" format="1">
	<advance width="600"/>
	<outline>
		<contour>
			<point x="316" y="574" type="line"/>
			<point x="404" y="574" type="line"/>
			<point x="404" y="728" type="line"/>
			<point x="208" y="728" type="line"/>
			<point x="208" y="648" type="line"/>
			<point x="316" y="648" type="line"/>
		</contour>
		<contour>
			<point name="_aboverightLC" x="300" y="520" type="move"/>
		</contour>
	</outline>
</glyph>
<glyph name="lozenge" format="1">
	<advance width="600"/>
	<outline>
		<contour>
			<point x="232" y="-10" type="line"/>
			<point x="368" y="-10" type="line"/>
			<point x="534" y="326" type="line"/>
			<point x="368" y="662" type="line"/>
			<point x="232" y="662" type="line"/>
			<point x="66" y="326" type="line"/>
		</contour>
		<contour>
			<point x="298" y="134" type="line"/>
			<point x="244" y="250" type="line"/>
			<point x="206" y="326" type="line"/>
			<point x="244" y="402" type="line"/>
			<point x="298" y="518" type="line"/>
			<point x="302" y="518" type="line"/>
			<point x="356" y="402" type="line"/>
			<point x="394" y="326" type="line"/>
			<point x="356" y="250" type="line"/>
			<point x="302" y="134" type="line"/>
		</contour>
	</outline>
</glyph>
<glyph name="lsmall" format="1">
	<advance width="600"/>
	<outline>
		<contour>
			<point x="110" y="0" type="line"/>
			<point x="538" y="0" type="line"/>
			<point x="538" y="134" type="line"/>
			<point x="282" y="134" type="line"/>
			<point x="282" y="500" type="line"/>
			<point x="110" y="500" type="line"/>
		</contour>
		<contour>
			<point name="aboveLC" x="194" y="520" type="move"/>
		</contour>
		<contour>
			<point name="belowLC" x="330" y="-20" type="move"/>
		</contour>
	</outline>
</glyph>
<glyph name="macroncmb.cap" format="1">
	<advance width="600"/>
	<outline>
		<contour>
			<point x="142" y="716" type="line"/>
			<point x="458" y="716" type="line"/>
			<point x="458" y="824" type="line"/>
			<point x="142" y="824" type="line"/>
		</contour>
		<contour>
			<point name="_aboveUC" x="300" y="670" type="move"/>
		</contour>
	</outline>
</glyph>
<glyph name="one.ao" format="1">
	<advance width="600"/>
	<outline>
		<contour>
			<point x="72" y="0" type="line"/>
			<point x="546" y="0" type="line"/>
			<point x="546" y="138" type="line"/>
			<point x="410" y="138" type="line"/>
			<point x="410" y="580" type="line"/>
			<point x="274" y="580" type="line"/>
			<point x="66" y="392" type="line"/>
			<point x="150" y="298" type="line"/>
			<point x="288" y="392" type="line"/>
			<point x="238" y="442" type="line"/>
			<point x="238" y="138" type="line"/>
			<point x="72" y="138" type="line"/>
		</contour>
	</outline>
</glyph>
<glyph name="phi.a" format="1">
	<advance width="600"/>
	<outline>
		<contour>
			<point x="230" y="-176" type="line"/>
			<point x="382" y="-176" type="line"/>
			<point x="374" y="-30"/>
			<point x="370" y="126"/>
			<point x="370" y="272" type="curve" smooth="yes"/>
			<point x="370" y="342"/>
			<point x="383" y="372"/>
			<point x="404" y="372" type="curve" smooth="yes"/>
			<point x="425" y="372"/>
			<point x="436" y="346"/>
			<point x="436" y="256" type="curve" smooth="yes"/>
			<point x="436" y="152"/>
			<point x="405" y="121"/>
			<point x="354" y="118" type="curve"/>
			<point x="356" y="-8" type="line"/>
			<point x="471" y="-8"/>
			<point x="582" y="90"/>
			<point x="582" y="268" type="curve" smooth="yes"/>
			<point x="582" y="424"/>
			<point x="518" y="512"/>
			<point x="410" y="512" type="curve" smooth="yes"/>
			<point x="306" y="512"/>
			<point x="230" y="438"/>
			<point x="230" y="243" type="curve" smooth="yes"/>
		</contour>
		<contour>
			<point x="246" y="-8" type="curve"/>
			<point x="254" y="118" type="line"/>
			<point x="184" y="118"/>
			<point x="164" y="172"/>
			<point x="164" y="248" type="curve" smooth="yes"/>
			<point x="164" y="307"/>
			<point x="186" y="362"/>
			<point x="232" y="422" type="curve"/>
			<point x="120" y="522" type="line"/>
			<point x="60" y="452"/>
			<point x="18" y="346"/>
			<point x="18" y="264" type="curve" smooth="yes"/>
			<point x="18" y="88"/>
			<point x="123" y="-8"/>
		</contour>
	</outline>
</glyph>
<glyph name="quotereversed" format="1">
	<advance width="600"/>
	<outline>
		<contour>
			<point x="361" y="267" type="curve"/>
			<point x="404" y="356" type="line"/>
			<point x="327" y="388"/>
			<point x="289" y="433"/>
			<point x="289" y="500" type="curve" smooth="yes"/>
			<point x="290" y="602" type="line"/>
			<point x="229" y="515" type="line"/>
			<point x="248" y="500"/>
			<point x="281" y="487"/>
			<point x="307" y="487" type="curve" smooth="yes"/>
			<point x="365" y="487"/>
			<point x="406" y="526"/>
			<point x="406" y="586" type="curve" smooth="yes"/>
			<point x="406" y="653"/>
			<point x="362" y="696"/>
			<point x="302" y="696" type="curve" smooth="yes"/>
			<point x="219" y="696"/>
			<point x="174" y="631"/>
			<point x="174" y="521" type="curve" smooth="yes"/>
			<point x="174" y="409"/>
			<point x="234" y="323"/>
		</contour>
	</outline>
</glyph>
<glyph name="righttackbelowcmb" format="1">
	<advance width="600"/>
	<outline>
		<contour>
			<point x="178" y="-260" type="line"/>
			<point x="274" y="-260" type="line"/>
			<point x="274" y="-196" type="line"/>
			<point x="392" y="-196" type="line"/>
			<point x="392" y="-116" type="line"/>
			<point x="274" y="-116" type="line"/>
			<point x="274" y="-52" type="line"/>
			<point x="178" y="-52" type="line"/>
		</contour>
		<contour>
			<point name="_belowLC" x="300" y="-20" type="move"/>
		</contour>
	</outline>
</glyph>
<glyph name="ringhalfrightbelowcmb" format="1">
	<advance width="600"/>
	<outline>
		<contour>
			<point x="230" y="-258" type="line"/>
			<point x="360" y="-262"/>
			<point x="406" y="-218"/>
			<point x="406" y="-154" type="curve" smooth="yes"/>
			<point x="406" y="-90"/>
			<point x="360" y="-46"/>
			<point x="230" y="-50" type="curve"/>
			<point x="230" y="-112" type="line"/>
			<point x="276" y="-112"/>
			<point x="294" y="-129"/>
			<point x="294" y="-154" type="curve" smooth="yes"/>
			<point x="294" y="-179"/>
			<point x="276" y="-196"/>
			<point x="230" y="-196" type="curve"/>
		</contour>
		<contour>
			<point name="_belowLC" x="300" y="-20" type="move"/>
		</contour>
	</outline>
</glyph>
<glyph name="s.sups" format="1">
	<advance width="600"/>
	<outline>
		<contour>
			<point x="297" y="360" type="curve" smooth="yes"/>
			<point x="405" y="360"/>
			<point x="463" y="408"/>
			<point x="463" y="471" type="curve" smooth="yes"/>
			<point x="463" y="530"/>
			<point x="404" y="555"/>
			<point x="351" y="570" type="curve" smooth="yes"/>
			<point x="312" y="581"/>
			<point x="279" y="588"/>
			<point x="279" y="604" type="curve" smooth="yes"/>
			<point x="279" y="616"/>
			<point x="290" y="620"/>
			<point x="318" y="620" type="curve" smooth="yes"/>
			<point x="348" y="620"/>
			<point x="377" y="610"/>
			<point x="406" y="593" type="curve"/>
			<point x="459" y="662" type="line"/>
			<point x="424" y="684"/>
			<point x="377" y="708"/>
			<point x="316" y="708" type="curve" smooth="yes"/>
			<point x="221" y="708"/>
			<point x="160" y="664"/>
			<point x="160" y="599" type="curve" smooth="yes"/>
			<point x="160" y="544"/>
			<point x="219" y="516"/>
			<point x="270" y="500" type="curve" smooth="yes"/>
			<point x="310" y="488"/>
			<point x="345" y="480"/>
			<point x="345" y="464" type="curve" smooth="yes"/>
			<point x="345" y="452"/>
			<point x="333" y="446"/>
			<point x="299" y="446" type="curve" smooth="yes"/>
			<point x="263" y="446"/>
			<point x="229" y="458"/>
			<point x="192" y="480" type="curve"/>
			<point x="139" y="408" type="line"/>
			<point x="180" y="380"/>
			<point x="242" y="360"/>
		</contour>
	</outline>
</glyph>
<glyph name="shcha" format="1">
	<advance width="600"/>
	<outline>
		<contour>
			<point x="26" y="0" type="line"/>
			<point x="554" y="0" type="line"/>
			<point x="554" y="500" type="line"/>
			<point x="408" y="500" type="line"/>
			<point x="408" y="134" type="line"/>
			<point x="356" y="134" type="line"/>
			<point x="356" y="500" type="line"/>
			<point x="224" y="500" type="line"/>
			<point x="224" y="134" type="line"/>
			<point x="172" y="134" type="line"/>
			<point x="172" y="500" type="line"/>
			<point x="26" y="500" type="line"/>
		</contour>
		<contour>
			<point x="464" y="-172" type="line"/>
			<point x="596" y="-172" type="line"/>
			<point x="612" y="20" type="line"/>
			<point x="612" y="134" type="line"/>
			<point x="436" y="134" type="line"/>
			<point x="436" y="0" type="line"/>
			<point x="464" y="0" type="line"/>
		</contour>
		<contour>
			<point name="aboveLC" x="300" y="520" type="move"/>
		</contour>
	</outline>
</glyph>
<glyph name="trianglesmallrightwhite" format="1">
	<advance width="600"/>
	<outline>
		<contour>
			<point x="122" y="42" type="line"/>
			<point x="126" y="42" type="line"/>
			<point x="522" y="260" type="line"/>
			<point x="522" y="264" type="line"/>
			<point x="126" y="482" type="line"/>
			<point x="122" y="482" type="line"/>
		</contour>
		<contour>
			<point x="202" y="180" type="line"/>
			<point x="202" y="344" type="line"/>
			<point x="368" y="262" type="line"/>
		</contour>
	</outline>
</glyph>
<glyph name="underscoredbl" format="1">
	<advance width="600"/>
	<outline>
		<contour>
			<point x="60" y="-154" type="line"/>
			<point x="540" y="-154" type="line"/>
			<point x="540" y="-48" type="line"/>
			<point x="60" y="-48" type="line"/>
		</contour>
		<contour>
			<point x="60" y="-314" type="line"/>
			<point x="540" y="-314" type="line"/>
			<point x="540" y="-208" type="line"/>
			<point x="60" y="-208" type="line"/>
		</contour>
	</outline>
</glyph>
<glyph name="yat" format="1">
	<advance width="600"/>
	<outline>
		<contour>
			<point x="152" y="0" type="line"/>
			<point x="348" y="0" type="line" smooth="yes"/>
			<point x="470" y="0"/>
			<point x="568" y="42"/>
			<point x="568" y="177" type="curve" smooth="yes"/>
			<point x="568" y="308"/>
			<point x="470" y="350"/>
			<point x="348" y="350" type="curve" smooth="yes"/>
			<point x="324" y="350" type="line"/>
			<point x="324" y="420" type="line"/>
			<point x="470" y="420" type="line"/>
			<point x="470" y="554" type="line"/>
			<point x="324" y="554" type="line"/>
			<point x="324" y="630" type="line"/>
			<point x="152" y="630" type="line"/>
			<point x="152" y="554" type="line"/>
			<point x="28" y="554" type="line"/>
			<point x="28" y="420" type="line"/>
			<point x="152" y="420" type="line"/>
		</contour>
		<contour>
			<point x="324" y="130" type="line"/>
			<point x="324" y="224" type="line"/>
			<point x="342" y="224" type="line" smooth="yes"/>
			<point x="384" y="224"/>
			<point x="404" y="208"/>
			<point x="404" y="178" type="curve" smooth="yes"/>
			<point x="404" y="146"/>
			<point x="384" y="130"/>
			<point x="342" y="130" type="curve" smooth="yes"/>
		</contour>
	</outline>
</glyph>
<glyph name="zcurl" format="1">
	<advance width="600"/>
	<outline>
		<contour>
			<point x="360" y="-112" type="line"/>
			<point x="397" y="108"/>
			<point x="443" y="182"/>
			<point x="478" y="182" type="curve" smooth="yes"/>
			<point x="495" y="182"/>
			<point x="504" y="175"/>
			<point x="504" y="159" type="curve" smooth="yes"/>
			<point x="504" y="141"/>
			<point x="488" y="124"/>
			<point x="453" y="124" type="curve" smooth="yes"/>
			<point x="396" y="124"/>
			<point x="342" y="128"/>
			<point x="284" y="134" type="curve"/>
			<point x="488" y="408" type="line"/>
			<point x="488" y="500" type="line"/>
			<point x="98" y="500" type="line"/>
			<point x="98" y="366" type="line"/>
			<point x="276" y="366" type="line"/>
			<point x="70" y="92" type="line"/>
			<point x="70" y="0" type="line"/>
			<point x="406" y="0" type="line" smooth="yes"/>
			<point x="536" y="0"/>
			<point x="592" y="70"/>
			<point x="592" y="154" type="curve" smooth="yes"/>
			<point x="592" y="232"/>
			<point x="548" y="270"/>
			<point x="478" y="270" type="curve" smooth="yes"/>
			<point x="383" y="270"/>
			<point x="320" y="120"/>
			<point x="281" y="-96" type="curve"/>
		</contour>
		<contour>
			<point name="aboveLC" x="300" y="520" type="move"/>
		</contour>
	</outline>
</glyph>
